<svg xmlns="http://www.w3.org/2000/svg" width="1200" height="800" viewBox="0 0 1200 800">
<rect width="1200" height="800" fill="#191D21"/>
<rect x="70" y="64" width="1060" height="672" rx="24" fill="#20252A" stroke="#343B43" stroke-width="4"/>
<rect x="70" y="64" width="1060" height="72" rx="24" fill="#272D33"/>
<rect x="70" y="112" width="1060" height="24" fill="#272D33"/>
<circle cx="112" cy="100" r="9" fill="#59636D"/><circle cx="143" cy="100" r="9" fill="#59636D"/><circle cx="174" cy="100" r="9" fill="#F3BD67"/>
<text x="1000" y="105" font-size="22" text-anchor="end" font-family="Arial,sans-serif" font-weight="700" fill="#929CA6">QUARTZLAB</text>
<rect x="280" y="480" width="72" height="120" rx="8" fill="#46505A"/><rect x="405" y="410" width="72" height="190" rx="8" fill="#46505A"/><rect x="530" y="320" width="72" height="280" rx="8" fill="#46505A"/><rect x="655" y="440" width="72" height="160" rx="8" fill="#46505A"/><rect x="780" y="260" width="72" height="340" rx="8" fill="#F3BD67"/><path d="M260 610h680" stroke="#626C77" stroke-width="10"/><circle cx="890" cy="265" r="72" fill="none" stroke="#F3BD67" stroke-width="18"/><path d="m942 317 72 72" stroke="#F3BD67" stroke-width="18"/>
<rect x="96" y="665" width="1008" height="1" fill="#3A424B"/>
<text x="105" y="704" font-size="28" font-family="Arial,sans-serif" font-weight="700" fill="#F0F3F5">BuildLens</text>
<text x="1095" y="704" font-size="20" text-anchor="end" font-family="Arial,sans-serif" font-weight="700" letter-spacing="2" fill="#F3BD67">BUILD SIZE REPORT</text>
</svg>