<svg xmlns="http://www.w3.org/2000/svg" width="1200" height="800" viewBox="0 0 1200 800">
<rect width="1200" height="800" fill="#191D21"/>
<rect x="70" y="64" width="1060" height="672" rx="24" fill="#20252A" stroke="#343B43" stroke-width="4"/>
<rect x="70" y="64" width="1060" height="72" rx="24" fill="#272D33"/>
<rect x="70" y="112" width="1060" height="24" fill="#272D33"/>
<circle cx="112" cy="100" r="9" fill="#59636D"/><circle cx="143" cy="100" r="9" fill="#59636D"/><circle cx="174" cy="100" r="9" fill="#55D6F6"/>
<text x="1000" y="105" font-size="22" text-anchor="end" font-family="Arial,sans-serif" font-weight="700" fill="#929CA6">QUARTZLAB</text>
<rect x="250" y="340" width="12" height="80" rx="6" fill="#55D6F6" opacity="0.45"/><rect x="274" y="318" width="12" height="124" rx="6" fill="#55D6F6" opacity="0.63"/><rect x="298" y="296" width="12" height="168" rx="6" fill="#55D6F6" opacity="0.81"/><rect x="322" y="274" width="12" height="212" rx="6" fill="#55D6F6" opacity="0.45"/><rect x="346" y="252" width="12" height="256" rx="6" fill="#55D6F6" opacity="0.63"/><rect x="370" y="340" width="12" height="80" rx="6" fill="#55D6F6" opacity="0.81"/><rect x="394" y="318" width="12" height="124" rx="6" fill="#55D6F6" opacity="0.45"/><rect x="418" y="296" width="12" height="168" rx="6" fill="#55D6F6" opacity="0.63"/><rect x="442" y="274" width="12" height="212" rx="6" fill="#55D6F6" opacity="0.81"/><rect x="466" y="252" width="12" height="256" rx="6" fill="#55D6F6" opacity="0.45"/><rect x="490" y="340" width="12" height="80" rx="6" fill="#55D6F6" opacity="0.63"/><rect x="514" y="318" width="12" height="124" rx="6" fill="#55D6F6" opacity="0.81"/><rect x="538" y="296" width="12" height="168" rx="6" fill="#55D6F6" opacity="0.45"/><rect x="562" y="274" width="12" height="212" rx="6" fill="#55D6F6" opacity="0.63"/><rect x="586" y="252" width="12" height="256" rx="6" fill="#55D6F6" opacity="0.81"/><rect x="610" y="340" width="12" height="80" rx="6" fill="#55D6F6" opacity="0.45"/><rect x="634" y="318" width="12" height="124" rx="6" fill="#55D6F6" opacity="0.63"/><rect x="658" y="296" width="12" height="168" rx="6" fill="#55D6F6" opacity="0.81"/><rect x="682" y="274" width="12" height="212" rx="6" fill="#55D6F6" opacity="0.45"/><rect x="706" y="252" width="12" height="256" rx="6" fill="#55D6F6" opacity="0.63"/><rect x="730" y="340" width="12" height="80" rx="6" fill="#55D6F6" opacity="0.81"/><rect x="754" y="318" width="12" height="124" rx="6" fill="#55D6F6" opacity="0.45"/><rect x="778" y="296" width="12" height="168" rx="6" fill="#55D6F6" opacity="0.63"/><rect x="802" y="274" width="12" height="212" rx="6" fill="#55D6F6" opacity="0.81"/><rect x="826" y="252" width="12" height="256" rx="6" fill="#55D6F6" opacity="0.45"/><circle cx="815" cy="420" r="76" fill="none" stroke="#55D6F6" stroke-width="18"/><path d="M790 375 850 420 790 465Z" fill="#55D6F6"/>
<rect x="96" y="665" width="1008" height="1" fill="#3A424B"/>
<text x="105" y="704" font-size="28" font-family="Arial,sans-serif" font-weight="700" fill="#F0F3F5">ClipSwitch</text>
<text x="1095" y="704" font-size="20" text-anchor="end" font-family="Arial,sans-serif" font-weight="700" letter-spacing="2" fill="#55D6F6">AUDIO REPLACEMENT</text>
</svg>