<svg xmlns="http://www.w3.org/2000/svg" width="1200" height="800" viewBox="0 0 1200 800">
<rect width="1200" height="800" fill="#191D21"/>
<rect x="70" y="64" width="1060" height="672" rx="24" fill="#20252A" stroke="#343B43" stroke-width="4"/>
<rect x="70" y="64" width="1060" height="72" rx="24" fill="#272D33"/>
<rect x="70" y="112" width="1060" height="24" fill="#272D33"/>
<circle cx="112" cy="100" r="9" fill="#59636D"/><circle cx="143" cy="100" r="9" fill="#59636D"/><circle cx="174" cy="100" r="9" fill="#F3BD67"/>
<text x="1000" y="105" font-size="22" text-anchor="end" font-family="Arial,sans-serif" font-weight="700" fill="#929CA6">QUARTZLAB</text>
<path d="M360 570 260 400l100-170h200l100 170-100 170Z" fill="#252B31" stroke="#616C77" stroke-width="12"/><path d="M520 565 470 405l50-160h160l50 160-50 160Z" fill="none" stroke="#F3BD67" stroke-width="18"/><rect x="775" y="285" width="180" height="250" rx="90" fill="none" stroke="#F3BD67" stroke-width="18"/><path d="M865 270v280M760 410h210" stroke="#69737D" stroke-width="10" stroke-dasharray="18 16"/>
<rect x="96" y="665" width="1008" height="1" fill="#3A424B"/>
<text x="105" y="704" font-size="28" font-family="Arial,sans-serif" font-weight="700" fill="#F0F3F5">ColliderFit</text>
<text x="1095" y="704" font-size="20" text-anchor="end" font-family="Arial,sans-serif" font-weight="700" letter-spacing="2" fill="#F3BD67">COLLIDER TOOLS</text>
</svg>