<svg xmlns="http://www.w3.org/2000/svg" width="1200" height="800" viewBox="0 0 1200 800">
<rect width="1200" height="800" fill="#191D21"/>
<rect x="70" y="64" width="1060" height="672" rx="24" fill="#20252A" stroke="#343B43" stroke-width="4"/>
<rect x="70" y="64" width="1060" height="72" rx="24" fill="#272D33"/>
<rect x="70" y="112" width="1060" height="24" fill="#272D33"/>
<circle cx="112" cy="100" r="9" fill="#59636D"/><circle cx="143" cy="100" r="9" fill="#59636D"/><circle cx="174" cy="100" r="9" fill="#55D6F6"/>
<text x="1000" y="105" font-size="22" text-anchor="end" font-family="Arial,sans-serif" font-weight="700" fill="#929CA6">QUARTZLAB</text>
<path d="M280 320h640" stroke="#59636E" stroke-width="16" stroke-linecap="round"/><circle cx="480" cy="320" r="32" fill="#55D6F6"/><path d="M280 420h640" stroke="#59636E" stroke-width="16" stroke-linecap="round"/><circle cx="760" cy="420" r="32" fill="#55D6F6"/><path d="M280 520h640" stroke="#59636E" stroke-width="16" stroke-linecap="round"/><circle cx="600" cy="520" r="32" fill="#55D6F6"/><rect x="885" y="275" width="95" height="295" rx="15" fill="#252B31" stroke="#55D6F6" stroke-width="10"/><path d="M910 335h45M910 405h45M910 475h45" stroke="#55D6F6" stroke-width="12"/>
<rect x="96" y="665" width="1008" height="1" fill="#3A424B"/>
<text x="105" y="704" font-size="28" font-family="Arial,sans-serif" font-weight="700" fill="#F0F3F5">ImportPilot</text>
<text x="1095" y="704" font-size="20" text-anchor="end" font-family="Arial,sans-serif" font-weight="700" letter-spacing="2" fill="#55D6F6">IMPORT RULES</text>
</svg>