<svg xmlns="http://www.w3.org/2000/svg" width="1200" height="800" viewBox="0 0 1200 800">
<rect width="1200" height="800" fill="#191D21"/>
<rect x="70" y="64" width="1060" height="672" rx="24" fill="#20252A" stroke="#343B43" stroke-width="4"/>
<rect x="70" y="64" width="1060" height="72" rx="24" fill="#272D33"/>
<rect x="70" y="112" width="1060" height="24" fill="#272D33"/>
<circle cx="112" cy="100" r="9" fill="#59636D"/><circle cx="143" cy="100" r="9" fill="#59636D"/><circle cx="174" cy="100" r="9" fill="#8A78FF"/>
<text x="1000" y="105" font-size="22" text-anchor="end" font-family="Arial,sans-serif" font-weight="700" fill="#929CA6">QUARTZLAB</text>
<rect x="280" y="285" width="55" height="55" rx="8" fill="#22282E" stroke="#8A78FF" stroke-width="10"/><path d="m295 315 15 15 30-38" fill="none" stroke="#8A78FF" stroke-width="11"/><rect x="280" y="390" width="55" height="55" rx="8" fill="#22282E" stroke="#8A78FF" stroke-width="10"/><path d="m295 420 15 15 30-38" fill="none" stroke="#8A78FF" stroke-width="11"/><rect x="280" y="495" width="55" height="55" rx="8" fill="#22282E" stroke="#8A78FF" stroke-width="10"/><path d="m295 525 15 15 30-38" fill="none" stroke="#8A78FF" stroke-width="11"/><rect x="280" y="600" width="55" height="55" rx="8" fill="#22282E" stroke="#59636E" stroke-width="10"/><path d="M385 312h430" stroke="#65707A" stroke-width="18" stroke-linecap="round"/><path d="M385 417h430" stroke="#65707A" stroke-width="18" stroke-linecap="round"/><path d="M385 522h430" stroke="#65707A" stroke-width="18" stroke-linecap="round"/><path d="M385 627h430" stroke="#65707A" stroke-width="18" stroke-linecap="round"/><circle cx="920" cy="525" r="80" fill="none" stroke="#8A78FF" stroke-width="18"/><path d="m900 525 25 25 50-60" fill="none" stroke="#8A78FF" stroke-width="17"/>
<rect x="96" y="665" width="1008" height="1" fill="#3A424B"/>
<text x="105" y="704" font-size="28" font-family="Arial,sans-serif" font-weight="700" fill="#F0F3F5">SceneSweep</text>
<text x="1095" y="704" font-size="20" text-anchor="end" font-family="Arial,sans-serif" font-weight="700" letter-spacing="2" fill="#8A78FF">SCENE AUDIT</text>
</svg>